<mxfile host="app.diagrams.net" modified="2023-07-14T00:25:38.327Z" agent="Mozilla/5.0 (X11; Linux x86_64) AppleWebKit/537.36 (KHTML, like Gecko) Chrome/114.0.0.0 Safari/537.36 Edg/114.0.1823.67" version="21.6.2" etag="m590BBesZEfpkIeEQleH" type="github">
  <diagram name="Page-1" id="mRWkhTb5LMUBrdLpeaRo">
    <mxGraphModel>
      <root>
        <mxCell id="0" />
        <mxCell id="1" parent="0" />
      </root>
    </mxGraphModel>
  </diagram>
</mxfile>
